{
  "accessors": [
    {
      "bufferView": 2,
      "componentType": 5126,
      "count": 14265,
      "max": [
        25.751300811767578,
        -0.43590599298477173,
        5.236889839172363
      ],
      "min": [
        19.542999267578125,
        -2.8668301105499268,
        0.010006899945437908
      ],
      "type": "VEC3"
    },
    {
      "bufferView": 2,
      "byteOffset": 171180,
      "componentType": 5126,
      "count": 14265,
      "max": [
        1.0,
        1.0,
        1.0
      ],
      "min": [
        -1.0,
        -1.0,
        -1.0
      ],
      "type": "VEC3"
    },
    {
      "bufferView": 1,
      "componentType": 5126,
      "count": 14265,
      "max": [
        0.9975590109825134,
        0.9949039816856384
      ],
      "min": [
        0.00419999985024333,
        0.003906009951606393
      ],
      "type": "VEC2"
    },
    {
      "bufferView": 0,
      "componentType": 5125,
      "count": 75186,
      "type": "SCALAR"
    }
  ],
  "asset": {
    "extras": {
      "author": "Thomas the Tank Engine 1000 (https://sketchfab.com/thomasthetankengine1000)",
      "license": "CC-BY-4.0 (http://creativecommons.org/licenses/by/4.0/)",
      "source": "https://sketchfab.com/3d-models/spongebob-squarepants-outline-b0b3cfc84d794031b27b17f90d19c025",
      "title": "SpongeBob SquarePants (Outline)"
    },
    "generator": "Sketchfab-11.7.0",
    "version": "2.0"
  },
  "bufferViews": [
    {
      "buffer": 0,
      "byteLength": 300744,
      "name": "floatBufferViews",
      "target": 34963
    },
    {
      "buffer": 0,
      "byteLength": 114120,
      "byteOffset": 300744,
      "byteStride": 8,
      "name": "floatBufferViews",
      "target": 34962
    },
    {
      "buffer": 0,
      "byteLength": 342360,
      "byteOffset": 414864,
      "byteStride": 12,
      "name": "floatBufferViews",
      "target": 34962
    }
  ],
  "buffers": [
    {
      "byteLength": 757224,
      "uri": "scene.bin"
    }
  ],
  "images": [
    {
      "uri": "textures/Spongebob1Mtl_baseColor.png"
    },
    {
      "uri": "textures/Spongebob1Mtl_emissive.png"
    }
  ],
  "materials": [
    {
      "alphaMode": "BLEND",
      "doubleSided": true,
      "emissiveTexture": {
        "index": 1
      },
      "name": "Spongebob1Mtl",
      "pbrMetallicRoughness": {
        "baseColorTexture": {
          "index": 0
        },
        "metallicFactor": 0.0
      }
    }
  ],
  "meshes": [
    {
      "name": "Object_0",
      "primitives": [
        {
          "attributes": {
            "NORMAL": 1,
            "POSITION": 0,
            "TEXCOORD_0": 2
          },
          "indices": 3,
          "material": 0,
          "mode": 4
        }
      ]
    }
  ],
  "nodes": [
    {
      "children": [
        1
      ],
      "matrix": [
        1.0,
        0.0,
        0.0,
        0.0,
        0.0,
        2.220446049250313e-16,
        -1.0,
        0.0,
        0.0,
        1.0,
        2.220446049250313e-16,
        0.0,
        0.0,
        0.0,
        0.0,
        1.0
      ],
      "name": "Sketchfab_model"
    },
    {
      "children": [
        2
      ],
      "name": "Spongebob.obj.cleaner.materialmerger.gles"
    },
    {
      "mesh": 0,
      "name": "Object_2"
    }
  ],
  "samplers": [
    {
      "magFilter": 9729,
      "minFilter": 9987,
      "wrapS": 10497,
      "wrapT": 10497
    }
  ],
  "scene": 0,
  "scenes": [
    {
      "name": "Sketchfab_Scene",
      "nodes": [
        0
      ]
    }
  ],
  "textures": [
    {
      "sampler": 0,
      "source": 0
    },
    {
      "sampler": 0,
      "source": 1
    }
  ]
}
