{
  "accessors": [
    {
      "bufferView": 2,
      "componentType": 5126,
      "count": 65532,
      "max": [
        3.629390001296997,
        1.1800700426101685,
        3.5121800899505615
      ],
      "min": [
        -3.0596399307250977,
        -3.599910020828247,
        0.03497999906539917
      ],
      "type": "VEC3"
    },
    {
      "bufferView": 2,
      "byteOffset": 786384,
      "componentType": 5126,
      "count": 65532,
      "max": [
        1.0,
        1.0,
        1.0
      ],
      "min": [
        -1.0,
        -1.0,
        -1.0
      ],
      "type": "VEC3"
    },
    {
      "bufferView": 1,
      "componentType": 5126,
      "count": 65532,
      "max": [
        0.9995599985122681,
        0.9855200052261353
      ],
      "min": [
        0.0009800000116229057,
        0.0004400000034365803
      ],
      "type": "VEC2"
    },
    {
      "bufferView": 0,
      "componentType": 5125,
      "count": 103134,
      "type": "SCALAR"
    },
    {
      "bufferView": 2,
      "byteOffset": 1572768,
      "componentType": 5126,
      "count": 7985,
      "max": [
        -0.30206000804901123,
        0.981689989566803,
        3.1792900562286377
      ],
      "min": [
        -3.629390001296997,
        -1.3676999807357788,
        0.052949998527765274
      ],
      "type": "VEC3"
    },
    {
      "bufferView": 2,
      "byteOffset": 1668588,
      "componentType": 5126,
      "count": 7985,
      "max": [
        0.9997990727424622,
        0.9215681552886963,
        0.999789297580719
      ],
      "min": [
        -0.9993273615837097,
        -0.8911208510398865,
        -1.0
      ],
      "type": "VEC3"
    },
    {
      "bufferView": 1,
      "byteOffset": 524256,
      "componentType": 5126,
      "count": 7985,
      "max": [
        0.956820011138916,
        0.9126399755477905
      ],
      "min": [
        0.13233999907970428,
        0.4425700008869171
      ],
      "type": "VEC2"
    },
    {
      "bufferView": 0,
      "byteOffset": 412536,
      "componentType": 5125,
      "count": 12894,
      "type": "SCALAR"
    }
  ],
  "asset": {
    "extras": {
      "author": "BenAissa_Karim (https://sketchfab.com/BenAissa_Karim)",
      "license": "CC-BY-4.0 (http://creativecommons.org/licenses/by/4.0/)",
      "source": "https://sketchfab.com/3d-models/spongebob-squarepants-786fc91339db40f1b7da2234496f30fd",
      "title": "Spongebob Squarepants"
    },
    "generator": "Sketchfab-11.59.2",
    "version": "2.0"
  },
  "bufferViews": [
    {
      "buffer": 0,
      "byteLength": 464112,
      "name": "floatBufferViews",
      "target": 34963
    },
    {
      "buffer": 0,
      "byteLength": 588136,
      "byteOffset": 464112,
      "byteStride": 8,
      "name": "floatBufferViews",
      "target": 34962
    },
    {
      "buffer": 0,
      "byteLength": 1764408,
      "byteOffset": 1052248,
      "byteStride": 12,
      "name": "floatBufferViews",
      "target": 34962
    }
  ],
  "buffers": [
    {
      "byteLength": 2816656,
      "uri": "scene.bin"
    }
  ],
  "extensionsRequired": [
    "KHR_materials_pbrSpecularGlossiness"
  ],
  "extensionsUsed": [
    "KHR_materials_pbrSpecularGlossiness"
  ],
  "images": [
    {
      "uri": "textures/Material.001_diffuse.png"
    }
  ],
  "materials": [
    {
      "doubleSided": true,
      "extensions": {
        "KHR_materials_pbrSpecularGlossiness": {
          "diffuseFactor": [
            1.0,
            1.0,
            1.0,
            1.0
          ],
          "diffuseTexture": {
            "index": 0
          },
          "glossinessFactor": 1.0,
          "specularFactor": [
            0.05,
            0.05,
            0.05
          ]
        }
      },
      "name": "Material.001"
    }
  ],
  "meshes": [
    {
      "name": "Spongebob_0",
      "primitives": [
        {
          "attributes": {
            "NORMAL": 1,
            "POSITION": 0,
            "TEXCOORD_0": 2
          },
          "indices": 3,
          "material": 0,
          "mode": 4
        }
      ]
    },
    {
      "name": "Spongebob_0",
      "primitives": [
        {
          "attributes": {
            "NORMAL": 5,
            "POSITION": 4,
            "TEXCOORD_0": 6
          },
          "indices": 7,
          "material": 0,
          "mode": 4
        }
      ]
    }
  ],
  "nodes": [
    {
      "children": [
        1
      ],
      "matrix": [
        1.0,
        0.0,
        0.0,
        0.0,
        0.0,
        2.220446049250313e-16,
        -1.0,
        0.0,
        0.0,
        1.0,
        2.220446049250313e-16,
        0.0,
        0.0,
        0.0,
        0.0,
        1.0
      ],
      "name": "Sketchfab_model"
    },
    {
      "children": [
        2,
        5
      ],
      "name": "Root"
    },
    {
      "children": [
        3,
        4
      ],
      "matrix": [
        0.71238,
        0.0,
        0.0,
        0.0,
        0.0,
        0.21115,
        0.0,
        0.0,
        0.0,
        0.0,
        1.0,
        0.0,
        0.0,
        0.0,
        0.0,
        1.0
      ],
      "name": "Spongebob"
    },
    {
      "mesh": 0,
      "name": "Spongebob_0"
    },
    {
      "mesh": 1,
      "name": "Spongebob_0"
    },
    {
      "children": [
        6
      ],
      "matrix": [
        1.0,
        0.0,
        0.0,
        0.0,
        0.0,
        1.0,
        0.0,
        0.0,
        0.0,
        0.0,
        1.0,
        0.0,
        0.0,
        0.0,
        4.45587,
        1.0
      ],
      "name": "Hemi"
    },
    {
      "name": "Hemi"
    }
  ],
  "samplers": [
    {
      "magFilter": 9729,
      "minFilter": 9987,
      "wrapS": 10497,
      "wrapT": 10497
    }
  ],
  "scene": 0,
  "scenes": [
    {
      "name": "Sketchfab_Scene",
      "nodes": [
        0
      ]
    }
  ],
  "textures": [
    {
      "sampler": 0,
      "source": 0
    }
  ]
}
